<?xml version="1.0" standalone="no"?>
<!DOCTYPE svg PUBLIC "-//W3C//DTD SVG 20010904//EN" "http://www.w3.org/TR/2001/REC-SVG-20010904/DTD/svg10.dtd">
<svg version="1.0" xmlns="http://www.w3.org/2000/svg" width="205.000000pt" height="205.000000pt" viewBox="0 0 205.000000 205.000000" preserveAspectRatio="xMidYMid meet">
  <g transform="translate(0.000000,205.000000) scale(0.100000,-0.100000)" fill="#44749D" stroke="none">
    <path d="M508 2009 c-45 -26 -60 -175 -32 -319 8 -46 13 -95 9 -109 -7 -28 -88 -174 -113 -204 -28 -32 -4 -29 70 12 86 47 265 120 369 151 44 13 116 24 179 27 91 5 113 2 165 -16 105 -38 97 -39 89 10 -7 43 -24 106 -39 142 -14 33 14 17 39 -21 13 -22 30 -45 38 -53 7 -8 25 -36 40 -64 l27 -50 68 3 c82 5 146 -16 247 -76 37 -23 70 -42 72 -42 8 0 -28 65 -64 113 l-34 48 33 72 c26 58 34 88 37 154 3 54 0 94 -8 114 -13 30 -15 31 -60 27 -29 -3 -86 -24 -146 -53 l-98 -47 -86 21 c-72 18 -114 21 -260 20 -198 -1 -222 -5 -230 -38 -5 -21 -9 -18 -47 36 -72 102 -144 153 -215 153 -18 0 -41 -5 -50 -11z m175 -117 c49 -73 46 -120 -11 -184 -42 -46 -92 -76 -92 -55 0 7 5 18 12 25 6 6 12 36 12 67 1 58 11 70 26 33 7 -20 9 -18 9 15 1 21 -4 47 -9 58 -14 24 5 26 19 2 10 -17 10 -16 11 2 0 11 -7 33 -15 49 -18 35 -18 37 -1 30 8 -3 25 -22 39 -42z m879 -58 c-26 -18 -29 -34 -5 -34 15 0 15 -1 0 -18 -22 -24 -22 -43 0 -35 13 5 15 2 10 -11 -4 -10 -7 -36 -7 -59 l0 -40 -24 22 c-13 12 -32 40 -42 63 -16 36 -16 43 -3 66 15 28 78 76 87 67 3 -3 -4 -12 -16 -21z"/>
    <path d="M1281 1455 c-1 -113 -9 -185 -20 -185 -3 0 -21 29 -40 65 -18 36 -54 88 -78 115 -45 51 -77 69 -49 28 30 -43 22 -48 -72 -48 -116 0 -201 -24 -383 -110 -134 -63 -274 -110 -331 -110 -43 0 3 -19 64 -26 65 -7 68 -23 5 -25 -36 -1 -38 -2 -17 -9 14 -4 51 -8 83 -9 31 -1 57 -5 57 -10 0 -6 -21 -16 -47 -24 l-48 -14 120 -6 c145 -9 222 -20 306 -48 86 -28 158 -34 205 -19 22 8 68 41 111 81 86 82 118 89 171 38 38 -37 39 -49 11 -75 -12 -10 -27 -32 -34 -49 -11 -26 -10 -35 6 -68 41 -79 -11 -106 -123 -63 -37 13 -88 27 -115 30 l-48 6 40 -13 c22 -8 64 -26 93 -41 112 -57 217 -55 242 4 7 16 21 32 31 35 36 12 79 56 79 81 0 14 -16 46 -35 71 -46 60 -46 83 -2 49 44 -34 99 -56 138 -56 19 0 63 17 105 40 40 22 81 40 91 40 15 1 13 3 -6 14 -23 13 -23 13 18 20 41 6 49 26 11 26 -10 0 -22 5 -25 10 -3 6 5 10 19 10 14 0 28 5 31 10 3 6 -1 10 -11 10 -9 0 -56 25 -104 55 -99 63 -165 91 -239 101 -45 6 -51 9 -51 31 0 44 -18 14 -31 -52 -7 -36 -15 -65 -18 -65 -4 0 -14 28 -24 63 -10 34 -33 94 -52 132 l-33 70 -1 -110z m-237 -71 c28 -11 17 -21 -21 -22 -35 -1 -37 0 -19 13 23 17 20 17 40 9z m-64 -43 c12 -45 49 -65 103 -54 29 6 31 5 18 -10 -22 -28 -106 -23 -136 8 -32 31 -34 95 -4 95 5 0 13 -18 19 -39z m51 -4 c-1 -12 -15 -9 -19 4 -3 6 1 10 8 8 6 -3 11 -8 11 -12z m464 -17 c3 -5 3 -10 -2 -10 -4 0 -19 -3 -33 -6 -24 -5 -24 -5 -6 10 23 19 32 20 41 6z m59 -43 c14 -39 -25 -79 -73 -75 -44 4 -55 28 -13 28 35 0 55 20 55 55 0 32 19 27 31 -8z m-54 2 c0 -5 -4 -9 -10 -9 -5 0 -10 7 -10 16 0 8 5 12 10 9 6 -3 10 -10 10 -16z"/>
    <path d="M1742 1030 c-19 -12 -67 -53 -109 -93 -41 -39 -87 -80 -104 -90 -16 -11 -29 -20 -29 -21 0 -2 35 -1 78 2 92 5 131 -9 187 -67 60 -61 80 -114 80 -206 -1 -46 -6 -90 -14 -103 -7 -13 -10 -26 -8 -29 9 -8 43 66 72 157 23 70 28 104 29 195 1 131 -12 182 -61 236 -41 45 -70 50 -121 19z"/>
    <path d="M435 1010 c-59 -9 -115 -32 -164 -67 l-36 -25 48 7 c26 3 47 3 47 -2 0 -4 -16 -19 -35 -32 -19 -13 -35 -30 -35 -38 0 -8 5 -11 10 -8 22 14 62 -28 95 -100 38 -85 90 -130 159 -140 105 -16 216 87 216 200 0 136 -141 231 -305 205z"/>
    <path d="M795 884 c44 -73 59 -141 53 -245 -5 -97 -28 -157 -79 -208 -98 -98 -227 -95 -328 9 l-55 55 29 -52 c33 -61 106 -150 144 -176 14 -9 44 -22 66 -29 l40 -12 -35 -6 -35 -6 55 -27 c30 -15 66 -27 80 -27 46 -1 55 -16 18 -30 l-33 -12 25 -10 c14 -5 61 -8 105 -6 187 10 302 139 313 350 8 151 -51 283 -171 381 -46 37 -146 88 -199 101 l-27 6 34 -56z"/>
    <path d="M1170 736 c0 -2 19 -15 43 -29 79 -47 166 -158 184 -237 13 -54 9 -149 -9 -200 -46 -135 -139 -216 -262 -228 -39 -4 -46 -7 -29 -13 26 -10 126 4 192 26 27 9 70 34 95 56 47 41 59 42 30 1 -14 -20 -14 -22 1 -22 9 0 42 26 73 58 31 31 53 49 49 40 -20 -53 50 16 84 81 35 67 39 196 9 275 -28 74 -89 142 -155 172 -44 21 -65 24 -177 24 -71 0 -128 -2 -128 -4z"/>
  </g>
</svg>
